<?xml version="1.0" encoding="UTF-8" standalone="no"?>
<!-- Uploaded to: SVG Repo, www.svgrepo.com, Generator: SVG Repo Mixer Tools -->

<svg
   height="120px"
   width="120px"
   version="1.1"
   id="Layer_1"
   viewBox="0 0 496.8 496.8"
   xml:space="preserve"
   sodipodi:docname="vol-35.svg"
   inkscape:version="1.3 (0e150ed6c4, 2023-07-21)"
   xmlns:inkscape="http://www.inkscape.org/namespaces/inkscape"
   xmlns:sodipodi="http://sodipodi.sourceforge.net/DTD/sodipodi-0.dtd"
   xmlns="http://www.w3.org/2000/svg"
   xmlns:svg="http://www.w3.org/2000/svg"><defs
   id="defs23" /><sodipodi:namedview
   id="namedview21"
   pagecolor="#ffffff"
   bordercolor="#000000"
   borderopacity="0.25"
   inkscape:showpageshadow="2"
   inkscape:pageopacity="0.0"
   inkscape:pagecheckerboard="0"
   inkscape:deskcolor="#d1d1d1"
   showgrid="true"
   inkscape:zoom="2.8737416"
   inkscape:cx="48.542987"
   inkscape:cy="63.506058"
   inkscape:window-width="1260"
   inkscape:window-height="660"
   inkscape:window-x="0"
   inkscape:window-y="0"
   inkscape:window-maximized="1"
   inkscape:current-layer="Layer_1"><inkscape:grid
     type="xygrid"
     id="grid3192"
     originx="0"
     originy="0"
     spacingy="1"
     spacingx="1"
     units="px"
     visible="true" /></sodipodi:namedview>&#10;&#10;&#10;&#10;&#10;&#10;&#10;<g
   id="g3158"
   inkscape:label="base"
   style="fill:#333333;fill-opacity:1"><path
     style="display:inline;fill:#333333;fill-opacity:1;stroke-width:1.584"
     d="m 248.87519,445.92001 c 116.5824,0 212.8896,-91.2384 220.4928,-205.2864 0,5.0688 1.2672,8.8704 1.2672,13.9392 0,121.6512 -98.8416,221.76 -221.76,221.76 -121.6512,0 -221.759991,-98.8416 -221.759991,-221.76 0,-5.0688 0,-8.8704 1.2672,-13.9392 7.6032,114.048 103.910391,205.2864 220.492791,205.2864 z"
     id="path8"
     inkscape:label="shadow" /><circle
     style="display:inline;fill:#333333;fill-opacity:1;stroke-width:1.584"
     cx="248.8752"
     cy="243.07127"
     r="221.76001"
     id="circle12"
     inkscape:label="dial" /><path
     style="display:inline;fill:#333333;fill-opacity:1;stroke-width:1.58653"
     d="m 405.74362,86.606184 c 86.3078,86.307816 86.3078,227.192636 0,313.500456 -86.30783,86.3078 -227.19264,86.3078 -313.500453,0"
     id="path14"
     inkscape:label="highlight" /></g>&#10;&#10;<g
   id="g3198"
   inkscape:label="main"
   transform="matrix(1.0294618,0,0,0.94492292,16.871289,24.754567)"
   style="fill:#50c878;fill-opacity:1"><circle
     style="display:none;fill:#50c878;fill-opacity:1;stroke-width:1.584"
     cx="110.80194"
     cy="329.83514"
     r="221.76001"
     id="circle12-3"
     inkscape:label="anchor"
     transform="rotate(-27)" /><path
     style="display:inline;fill:#50c878;fill-opacity:1;stroke-width:1.584"
     d="m 208.02747,143.07683 c 3.45179,6.7745 1.23663,13.59201 -5.53787,17.04379 v 0 c -6.77451,3.45178 -13.59203,1.23664 -17.04381,-5.53787 l -23.01187,-45.16333 c -3.45177,-6.77452 -1.23662,-13.592033 5.53788,-17.043805 v 0 c 6.77448,-3.451784 13.59202,-1.236634 17.04379,5.537868 z"
     id="path3789"
     inkscape:label="shadow" /><path
     style="display:inline;fill:#50c878;fill-opacity:1;stroke-width:1.584"
     d="m 208.1129,135.57126 c 3.45178,6.77451 1.23662,13.59204 -5.53788,17.04381 v 0 c -6.77448,3.45178 -13.59201,1.23664 -17.04379,-5.53786 l -23.01187,-45.16335 c -3.45179,-6.774503 -1.23664,-13.592022 5.53786,-17.0438 v 0 c 6.77452,-3.451792 13.59203,-1.236639 17.0438,5.537863 z"
     id="path915"
     inkscape:label="pointer" /></g>&#10;<text
   xml:space="preserve"
   style="font-weight:bold;font-size:49.68px;font-family:'Source Code Pro';-inkscape-font-specification:'Source Code Pro Bold';fill:#ffffff;fill-opacity:1;stroke-width:4.14"
   x="142.62244"
   y="84.9972"
   id="text1"><tspan
     sodipodi:role="line"
     id="tspan1"
     style="fill:#ffffff;fill-opacity:1;stroke-width:4.14"
     x="142.62244"
     y="84.9972">35</tspan></text></svg>
