<?xml version="1.0" encoding="UTF-8" standalone="no"?>
<!-- Uploaded to: SVG Repo, www.svgrepo.com, Generator: SVG Repo Mixer Tools -->

<svg
   height="120px"
   width="120px"
   version="1.1"
   id="Layer_1"
   viewBox="0 0 496.8 496.8"
   xml:space="preserve"
   sodipodi:docname="vol-70.svg"
   inkscape:version="1.3 (0e150ed6c4, 2023-07-21)"
   xmlns:inkscape="http://www.inkscape.org/namespaces/inkscape"
   xmlns:sodipodi="http://sodipodi.sourceforge.net/DTD/sodipodi-0.dtd"
   xmlns="http://www.w3.org/2000/svg"
   xmlns:svg="http://www.w3.org/2000/svg"><defs
   id="defs23" /><sodipodi:namedview
   id="namedview21"
   pagecolor="#ffffff"
   bordercolor="#000000"
   borderopacity="0.25"
   inkscape:showpageshadow="2"
   inkscape:pageopacity="0.0"
   inkscape:pagecheckerboard="0"
   inkscape:deskcolor="#d1d1d1"
   showgrid="true"
   inkscape:zoom="3.5349234"
   inkscape:cx="57.00265"
   inkscape:cy="60.397348"
   inkscape:window-width="1260"
   inkscape:window-height="660"
   inkscape:window-x="0"
   inkscape:window-y="0"
   inkscape:window-maximized="1"
   inkscape:current-layer="Layer_1"><inkscape:grid
     type="xygrid"
     id="grid3192"
     originx="0"
     originy="0"
     spacingy="1"
     spacingx="1"
     units="px"
     visible="true" /></sodipodi:namedview>&#10;&#10;&#10;&#10;&#10;&#10;&#10;<g
   id="g3158"
   inkscape:label="base"
   style="fill:#333333;fill-opacity:1"><path
     style="display:inline;fill:#333333;fill-opacity:1;stroke-width:1.584"
     d="m 248.87519,445.92001 c 116.5824,0 212.8896,-91.2384 220.4928,-205.2864 0,5.0688 1.2672,8.8704 1.2672,13.9392 0,121.6512 -98.8416,221.76 -221.76,221.76 -121.6512,0 -221.759991,-98.8416 -221.759991,-221.76 0,-5.0688 0,-8.8704 1.2672,-13.9392 7.6032,114.048 103.910391,205.2864 220.492791,205.2864 z"
     id="path8"
     inkscape:label="shadow" /><circle
     style="display:inline;fill:#333333;fill-opacity:1;stroke-width:1.584"
     cx="248.8752"
     cy="243.07127"
     r="221.76001"
     id="circle12"
     inkscape:label="dial" /><path
     style="display:inline;fill:#333333;fill-opacity:1;stroke-width:1.58653"
     d="m 405.74362,86.606184 c 86.3078,86.307816 86.3078,227.192636 0,313.500456 -86.30783,86.3078 -227.19264,86.3078 -313.500453,0"
     id="path14"
     inkscape:label="highlight" /></g>&#10;&#10;<g
   id="g3198"
   inkscape:label="main"
   transform="matrix(0.97898865,0,0,0.88880541,-6.5131802,27.200746)"
   style="fill:#50c878;fill-opacity:1"><circle
     style="display:none;fill:#50c878;fill-opacity:1;stroke-width:1.584"
     cx="344.18829"
     cy="51.016773"
     r="221.76001"
     id="circle12-3"
     inkscape:label="anchor"
     transform="rotate(36)" /><path
     style="display:inline;fill:#50c878;fill-opacity:1;stroke-width:1.584"
     d="m 326.37546,165.37472 c -4.46903,6.15112 -11.54914,7.27248 -17.70026,2.80342 v 0 c -6.15113,-4.46904 -7.27253,-11.54916 -2.80346,-17.70026 l 29.79365,-41.00747 c 4.46908,-6.15111 11.54918,-7.27249 17.70029,-2.80343 v 0 c 6.15111,4.46903 7.27249,11.54916 2.80345,17.70027 z"
     id="path3789"
     inkscape:label="shadow" /><path
     style="display:inline;fill:#50c878;stroke-width:1.584;fill-opacity:1"
     d="m 326.38524,158.59028 c -4.46906,6.15112 -11.54917,7.27247 -17.70029,2.80343 v 0 c -6.1511,-4.46902 -7.27248,-11.54914 -2.80345,-17.70027 l 29.79368,-41.00745 c 4.46904,-6.151128 11.54915,-7.272505 17.70027,-2.803453 v 0 c 6.15114,4.469053 7.2725,11.549163 2.80345,17.700273 z"
     id="path915"
     inkscape:label="pointer" /></g>&#10;<text
   xml:space="preserve"
   style="font-weight:bold;font-size:49.68px;font-family:'Source Code Pro';-inkscape-font-specification:'Source Code Pro Bold';fill:#ffffff;fill-opacity:1;stroke-width:4.14"
   x="317.38736"
   y="94.864853"
   id="text1"><tspan
     sodipodi:role="line"
     id="tspan1"
     style="fill:#ffffff;fill-opacity:1;stroke-width:4.14"
     x="317.38736"
     y="94.864853">70</tspan></text></svg>
