<?xml version="1.0" encoding="UTF-8" standalone="no"?>
<svg
   width="16"
   height="16"
   version="1.1"
   id="svg1"
   sodipodi:docname="both-high-signal-lock.svg"
   inkscape:version="1.3 (0e150ed6c4, 2023-07-21)"
   xmlns:inkscape="http://www.inkscape.org/namespaces/inkscape"
   xmlns:sodipodi="http://sodipodi.sourceforge.net/DTD/sodipodi-0.dtd"
   xmlns="http://www.w3.org/2000/svg"
   xmlns:svg="http://www.w3.org/2000/svg">
  <sodipodi:namedview
     id="namedview1"
     pagecolor="#ffffff"
     bordercolor="#000000"
     borderopacity="0.25"
     inkscape:showpageshadow="2"
     inkscape:pageopacity="0.0"
     inkscape:pagecheckerboard="0"
     inkscape:deskcolor="#d1d1d1"
     inkscape:zoom="32.3125"
     inkscape:cx="8"
     inkscape:cy="8"
     inkscape:window-width="1260"
     inkscape:window-height="660"
     inkscape:window-x="0"
     inkscape:window-y="0"
     inkscape:window-maximized="1"
     inkscape:current-layer="svg1" />
  <defs
     id="defs1">
    <style
       id="current-color-scheme"
       type="text/css">&#10;   .ColorScheme-Text { color:#dfdfdf; } .ColorScheme-Highlight { color:#4285f4; }&#10;  </style>
  </defs>
  <path
     style="fill:#02aabd;fill-opacity:1"
     class="ColorScheme-Text"
     d="M 8.029,2 8.031,2.002 C 4.9969,2.002 2.2653,3.2713 0,5.0156 L 8.031,14 9,12.904 V 11 H 10.014 C 10.033,9.365 11.356,8 13,8 13.105,8 13.204,8.02 13.307,8.031 L 16,4.9844 C 13.742,3.2628 11.04,2 8.029,2 Z M 13,9 C 11.892,9 11,9.911 11,11.031 V 12 H 10 V 16 H 16 V 12 H 15 V 11.031 C 15,9.911 14.108,9 13,9 Z M 13,10 C 13.554,10 14,10.442 14,11 V 12 H 12 V 11 C 12,10.442 12.446,10 13,10 Z"
     id="path1" />
</svg>
